<svg width="29" height="26" viewBox="0 0 29 26" fill="none" xmlns="http://www.w3.org/2000/svg">
<path d="M12.0834 12.75L12.604 8.58464C12.7254 7.614 13.1667 7.41669 14.0834 7.41669C15.0001 7.41669 15.4414 7.614 15.5627 8.58464L16.0834 12.75" stroke="#00344C" stroke-width="1.5" stroke-linecap="round"/>
<path d="M28.1667 0.75C28.1667 0.335786 27.8309 0 27.4167 0C27.0025 0 26.6667 0.335786 26.6667 0.75H27.4167H28.1667ZM1.5 0.75C1.5 0.335786 1.16421 0 0.75 0C0.335786 0 0 0.335786 0 0.75H0.75H1.5ZM19.1947 8.70025C18.7991 8.82282 18.5777 9.24293 18.7003 9.63859C18.8228 10.0343 19.2429 10.2556 19.6386 10.1331L19.4167 9.41667L19.1947 8.70025ZM8.52808 10.1331C8.92374 10.2556 9.34385 10.0343 9.46642 9.63859C9.58898 9.24293 9.36759 8.82282 8.97193 8.70025L8.75 9.41667L8.52808 10.1331ZM27.4167 0.75H26.6667C26.6667 4.16128 23.7432 7.29125 19.1947 8.70025L19.4167 9.41667L19.6386 10.1331C24.5083 8.62459 28.1667 5.0916 28.1667 0.75H27.4167ZM8.75 9.41667L8.97193 8.70025C4.42343 7.29125 1.5 4.16128 1.5 0.75H0.75H0C0 5.0916 3.65841 8.62459 8.52808 10.1331L8.75 9.41667Z" fill="#00344C"/>
<path d="M9.10837 13.4128C10.8961 12.3162 12.4565 12.7581 13.3938 13.462C13.7782 13.7506 13.9704 13.895 14.0834 13.895C14.1965 13.895 14.3886 13.7506 14.773 13.462C15.7103 12.7581 17.2707 12.3162 19.0585 13.4128C21.4047 14.852 21.9356 19.5999 16.5237 23.6056C15.4929 24.3685 14.9775 24.75 14.0834 24.75C13.1893 24.75 12.6739 24.3685 11.6431 23.6056C6.23123 19.5999 6.76213 14.852 9.10837 13.4128Z" stroke="#00344C" stroke-width="1.5" stroke-linecap="round"/>
</svg>
