<svg width="20" height="22" viewBox="0 0 20 22" fill="none" xmlns="http://www.w3.org/2000/svg">
<path d="M5.33325 18.6667C5.33325 18.2985 5.63172 18 5.99992 18H7.33325C7.70145 18 7.99992 18.2985 7.99992 18.6667C7.99992 19.0349 7.70145 19.3333 7.33325 19.3333H5.99992C5.63172 19.3333 5.33325 19.0349 5.33325 18.6667Z" fill="#00344C"/>
<path d="M2.66675 12C2.66675 11.6318 2.96521 11.3333 3.33341 11.3333H6.00008C6.36828 11.3333 6.66675 11.6318 6.66675 12C6.66675 12.3682 6.36828 12.6667 6.00008 12.6667H3.33341C2.96521 12.6667 2.66675 12.3682 2.66675 12Z" fill="#00344C"/>
<path d="M8.66675 13.3333C9.03495 13.3333 9.33341 13.6318 9.33341 14C9.33341 14.3682 9.03495 14.6667 8.66675 14.6667L3.33341 14.6667C2.96521 14.6667 2.66675 14.3682 2.66675 14C2.66675 13.6318 2.96521 13.3333 3.33341 13.3333L8.66675 13.3333Z" fill="#00344C"/>
<path d="M10.5154 9.48453C10.772 9.74114 11.188 9.74114 11.4446 9.48453C11.7012 9.22794 11.7012 8.81193 11.4446 8.55533C11.188 8.29873 10.772 8.29873 10.5154 8.55533C10.2588 8.81193 10.2588 9.22794 10.5154 9.48453Z" fill="#00344C"/>
<path fill-rule="evenodd" clip-rule="evenodd" d="M0 2C0 0.895433 0.8954 0 2 0L11.3333 0C12.4403 0 13.3333 0.923527 13.3333 2.02147C13.9344 1.40393 14.5521 0.801813 15.1615 0.192446C15.4181 -0.0641469 15.8341 -0.0641469 16.0907 0.192446L19.8075 3.90927C20.0641 4.16587 20.0641 4.58187 19.8075 4.83847L18.0421 6.604C17.0745 7.57153 15.8319 8.2118 14.4756 8.4522L13.4517 11.1142C13.4236 11.1873 13.3832 11.2535 13.3333 11.3106L13.3333 19.3333C13.3333 20.4379 12.4379 21.3333 11.3333 21.3333L2 21.3333C0.8954 21.3333 0 20.4379 0 19.3333L0 2ZM1.33333 17.3333L1.33333 19.3333C1.33333 19.7015 1.6318 20 2 20L11.3333 20C11.7015 20 12 19.7015 12 19.3333L12 17.3333L1.33333 17.3333ZM12 16L1.33333 16L1.33333 2C1.33333 1.6318 1.6318 1.33333 2 1.33333L11.3333 1.33333C11.7015 1.33333 12 1.6318 12 2L12 4H12.0068C11.7959 4.48447 11.6415 4.9958 11.5478 5.5244L8.8858 6.54827C8.65667 6.6364 8.49573 6.84493 8.4686 7.08893L8.004 11.2704C7.982 11.4688 8.05133 11.6664 8.19247 11.8075C8.3336 11.9487 8.5312 12.018 8.7296 11.996L12 11.6326V16ZM9.73053 7.63127L11.9789 6.76653L13.2335 8.02107L12.3687 10.2695L9.4008 10.5992L9.73053 7.63127ZM17.1129 5.6748C16.3363 6.45133 15.3341 6.96847 14.2317 7.16087L12.8391 5.76833C13.0315 4.66593 13.5487 3.66367 14.3252 2.88713L15.6261 1.58627L18.4137 4.37387L17.1129 5.6748Z" fill="#00344C"/>
</svg>
