<svg width="20" height="20" viewBox="0 0 20 20" fill="none" xmlns="http://www.w3.org/2000/svg">
<path d="M7.49984 10.8334C7.96007 10.8334 8.33317 10.4603 8.33317 10C8.33317 9.53978 7.96007 9.16669 7.49984 9.16669C7.0396 9.16669 6.6665 9.53978 6.6665 10C6.6665 10.4603 7.0396 10.8334 7.49984 10.8334Z" stroke="#00344C" stroke-width="1.66667" stroke-linecap="round" stroke-linejoin="round"/>
<path d="M7.49984 4.99998C7.96007 4.99998 8.33317 4.62688 8.33317 4.16665C8.33317 3.70641 7.96007 3.33331 7.49984 3.33331C7.0396 3.33331 6.6665 3.70641 6.6665 4.16665C6.6665 4.62688 7.0396 4.99998 7.49984 4.99998Z" stroke="#00344C" stroke-width="1.66667" stroke-linecap="round" stroke-linejoin="round"/>
<path d="M7.49984 16.6667C7.96007 16.6667 8.33317 16.2936 8.33317 15.8333C8.33317 15.3731 7.96007 15 7.49984 15C7.0396 15 6.6665 15.3731 6.6665 15.8333C6.6665 16.2936 7.0396 16.6667 7.49984 16.6667Z" stroke="#00344C" stroke-width="1.66667" stroke-linecap="round" stroke-linejoin="round"/>
<path d="M12.4998 10.8334C12.9601 10.8334 13.3332 10.4603 13.3332 10C13.3332 9.53978 12.9601 9.16669 12.4998 9.16669C12.0396 9.16669 11.6665 9.53978 11.6665 10C11.6665 10.4603 12.0396 10.8334 12.4998 10.8334Z" stroke="#00344C" stroke-width="1.66667" stroke-linecap="round" stroke-linejoin="round"/>
<path d="M12.4998 4.99998C12.9601 4.99998 13.3332 4.62688 13.3332 4.16665C13.3332 3.70641 12.9601 3.33331 12.4998 3.33331C12.0396 3.33331 11.6665 3.70641 11.6665 4.16665C11.6665 4.62688 12.0396 4.99998 12.4998 4.99998Z" stroke="#00344C" stroke-width="1.66667" stroke-linecap="round" stroke-linejoin="round"/>
<path d="M12.4998 16.6667C12.9601 16.6667 13.3332 16.2936 13.3332 15.8333C13.3332 15.3731 12.9601 15 12.4998 15C12.0396 15 11.6665 15.3731 11.6665 15.8333C11.6665 16.2936 12.0396 16.6667 12.4998 16.6667Z" stroke="#00344C" stroke-width="1.66667" stroke-linecap="round" stroke-linejoin="round"/>
</svg>
