<svg width="19" height="14" viewBox="0 0 19 14" fill="none" xmlns="http://www.w3.org/2000/svg">
<path d="M17.0367 5.7875C17.29 6.1425 17.4167 6.32083 17.4167 6.58333C17.4167 6.84667 17.29 7.02417 17.0367 7.37917C15.8983 8.97583 12.9908 12.4167 9.08333 12.4167C5.175 12.4167 2.26833 8.975 1.13 7.37917C0.876667 7.02417 0.75 6.84583 0.75 6.58333C0.75 6.32 0.876667 6.1425 1.13 5.7875C2.26833 4.19083 5.17583 0.75 9.08333 0.75C12.9917 0.75 15.8983 4.19167 17.0367 5.7875Z" stroke="#6D6D72" stroke-width="1.5"/>
<path d="M11.5835 6.58334C11.5835 5.92029 11.3201 5.28441 10.8513 4.81557C10.3824 4.34673 9.74654 4.08334 9.0835 4.08334C8.42045 4.08334 7.78457 4.34673 7.31573 4.81557C6.84689 5.28441 6.5835 5.92029 6.5835 6.58334C6.5835 7.24638 6.84689 7.88226 7.31573 8.3511C7.78457 8.81994 8.42045 9.08334 9.0835 9.08334C9.74654 9.08334 10.3824 8.81994 10.8513 8.3511C11.3201 7.88226 11.5835 7.24638 11.5835 6.58334Z" stroke="#6D6D72" stroke-width="1.5"/>
</svg>
