<svg width="32" height="32" viewBox="0 0 32 32" fill="none" xmlns="http://www.w3.org/2000/svg">
<path d="M22 6.66669H10C9.37874 6.66669 9.06812 6.66669 8.82309 6.56519C8.49638 6.42987 8.23682 6.1703 8.10149 5.8436C8 5.59857 8 5.28794 8 4.66669C8 4.04543 8 3.7348 8.10149 3.48978C8.23682 3.16307 8.49638 2.90351 8.82309 2.76818C9.06812 2.66669 9.37874 2.66669 10 2.66669H22C22.6213 2.66669 22.9319 2.66669 23.1769 2.76818C23.5036 2.90351 23.7632 3.16307 23.8985 3.48978C24 3.7348 24 4.04543 24 4.66669C24 5.28794 24 5.59857 23.8985 5.8436C23.7632 6.1703 23.5036 6.42987 23.1769 6.56519C22.9319 6.66669 22.6213 6.66669 22 6.66669Z" stroke="#00344C" stroke-width="1.5" stroke-linecap="round"/>
<path d="M9.99996 6.66669L9.75701 6.95823C8.22767 8.79343 7.463 9.71103 7.06482 10.8109C6.66663 11.9107 6.66663 13.1051 6.66663 15.494V21.3334C6.66663 25.1046 6.66663 26.9902 7.8382 28.1618C9.00977 29.3334 10.8954 29.3334 14.6666 29.3334H17.3333C21.1045 29.3334 22.9901 29.3334 24.1617 28.1618C25.3333 26.9902 25.3333 25.1046 25.3333 21.3334V15.494C25.3333 13.1051 25.3333 11.9107 24.9351 10.8109C24.5369 9.71103 23.7722 8.79343 22.2429 6.95823L22 6.66669" stroke="#00344C" stroke-width="1.5" stroke-linecap="round"/>
<path d="M13.3333 17.7255V15.2157L16 13.3333L18.6666 15.2157V17.7255M13.3333 17.7255L16 19.6078M13.3333 17.7255L10.6666 19.6078L10.6666 22.1176L13.3333 24L16 22.1176M18.6666 17.7255L16 19.6078M18.6666 17.7255L21.3333 19.6078V22.1176L18.6666 24L16 22.1176M16 19.6078V22.1176" stroke="#00344C" stroke-width="1.5" stroke-linecap="round" stroke-linejoin="round"/>
</svg>
