<svg width="55" height="24" viewBox="0 0 55 24" fill="none" xmlns="http://www.w3.org/2000/svg">
<path d="M28.2822 10.9573C28.9677 10.9573 29.8046 10.9087 30.1162 10.8197C30.1162 11.4025 29.7423 11.6372 29.4663 11.6615C29.0924 11.6858 28.6294 11.7263 28.0863 11.7263C27.9617 11.7263 27.8281 11.7263 27.7035 11.7425C27.659 11.8558 27.6323 11.9772 27.5966 12.0986C27.3652 13.0295 27.2494 13.5556 27.2494 13.8713C27.2494 14.0332 27.3384 14.187 27.3384 14.276C27.1337 14.4055 26.7686 14.4703 26.4659 14.4703C26.0297 14.4703 25.8872 14.3327 25.8872 14.0332C25.8872 13.847 25.9317 13.6527 25.9852 13.4504C26.0653 13.1266 26.1365 12.8109 26.2255 12.4871C26.6707 10.9492 27.0357 9.78356 27.0357 9.10361C27.0357 8.98218 27.0446 8.83649 26.9912 8.85267C26.8755 8.87698 26.7598 8.87698 26.7063 8.87698C26.6796 8.86886 26.6707 8.82841 26.6796 8.73935C26.6796 8.66649 26.6974 8.58555 26.733 8.51272C26.8933 8.22131 26.9645 8.16464 27.2405 8.14037C27.9884 8.07562 28.7452 8.04325 29.5019 8.04325C29.8581 8.04325 30.1875 8.01086 30.4367 8.01086C30.7929 8.01086 30.9353 8.04325 31.0511 8.15656C30.9888 8.5451 30.7394 8.99838 30.3477 8.99838C30.2409 8.99838 30.0717 8.79602 29.5998 8.79602H29.2704C29.0211 8.79602 28.7896 8.77984 28.6027 8.77984H28.1931C28.2822 8.86887 28.3178 8.94983 28.3178 9.03887C28.3178 9.08744 28.3178 9.11981 28.3089 9.17648C28.2109 9.62978 28.0329 10.3664 27.8726 10.9573L28.2822 10.9573Z" fill="#AD208E"/>
<path d="M34.657 12.8667C34.6927 12.8667 34.7016 12.891 34.7016 12.9396C34.7016 13.5305 33.7578 14.4128 33.1257 14.4128C32.636 14.4128 32.3333 14.1376 32.3333 13.5548C32.3333 13.3605 32.3511 13.0691 32.3778 12.8991C31.7101 13.8866 31.0602 14.3966 30.4726 14.4209H30.3746C29.6624 14.4209 29.4131 13.9433 29.4131 13.2796C29.4487 11.7173 30.7931 9.93652 32.2265 9.93652C32.5737 9.93652 32.8675 10.0013 33.099 10.1632C33.2415 10.0255 33.4373 9.95271 33.6599 9.95271C33.9359 9.95271 34.1941 10.0256 34.4523 10.147C34.1229 10.5922 33.5798 12.5915 33.5798 13.2148C33.5798 13.3767 33.5887 13.5629 33.6777 13.5548C33.8202 13.5386 33.9448 13.4253 34.114 13.2714C34.3899 12.9962 34.568 12.8667 34.657 12.8667ZM32.8497 11.0131C32.7518 10.6812 32.4135 10.5436 32.1375 10.5436C31.4252 10.5436 30.7129 12.0977 30.7129 13.15C30.7308 13.4333 30.8198 13.5709 31.0067 13.5709C31.1937 13.5709 31.4608 13.2957 31.808 12.8262C32.2621 12.2273 32.6538 11.5068 32.8497 11.0131Z" fill="#AD208E"/>
<path d="M36.4195 10.8196C36.4195 10.9815 36.5085 11.1272 36.651 11.2891C37.0338 11.71 37.4256 12.0904 37.4256 12.6813C37.4256 13.6527 36.4462 14.4055 35.3689 14.4055C34.7546 14.4055 34.0513 14.0412 34.0513 13.4098C34.0513 13.1346 34.2471 12.9646 34.4074 12.8837C34.6122 13.3856 34.9594 13.8308 35.4936 13.855C35.912 13.855 36.1791 13.6446 36.1791 13.2075C36.1791 12.827 35.8052 12.5599 35.4669 12.2118C35.2354 11.9609 35.1107 11.6452 35.1107 11.3295C35.1107 10.2853 36.2681 9.83203 37.292 9.83203C37.6125 9.83203 37.7461 9.8887 37.7995 10.0749C37.7995 10.2367 37.7194 10.3825 37.4523 10.5524C37.2742 10.3906 37.0962 10.3177 36.9359 10.3177C36.5798 10.3177 36.4195 10.5039 36.4195 10.8196Z" fill="#AD208E"/>
<path d="M41.8238 9.99354C42.2245 9.99354 42.456 10.1959 42.456 10.6492C42.447 11.2239 42.0019 12.3167 42.0019 13.1909C42.0019 13.3527 42.0197 13.5389 42.1087 13.5389C42.2334 13.5389 42.3758 13.4175 42.545 13.2556C42.8299 12.9885 42.9812 12.8509 43.0792 12.8509C43.1148 12.8509 43.1326 12.8671 43.1326 12.9156C43.1326 13.4984 42.1888 14.3888 41.5478 14.3888C41.0581 14.3888 40.7554 14.1136 40.7554 13.5389C40.7554 13.3123 40.7822 12.8509 40.9335 12.349C41.0938 11.8391 41.1561 11.4505 41.165 11.2158C41.165 11.1186 41.1294 10.9648 41.0225 10.9648C40.6308 10.9648 39.7939 12.1628 38.9748 13.9436C38.8413 14.235 38.6988 14.3807 38.2358 14.3807C38.0667 14.3807 37.8352 14.3564 37.5503 14.316C38.2269 12.7051 38.6454 10.9082 38.9036 9.0707C38.9036 9.03833 38.9125 9.01405 38.9125 8.98976C38.9125 8.86025 38.8769 8.75503 38.8056 8.61742C39.1707 8.43124 39.4823 8.3584 39.7672 8.3584C40.0254 8.3584 40.2123 8.48791 40.2123 8.73882C40.2123 8.76313 40.2123 8.78739 40.2034 8.81168C40.1856 9.01406 39.9274 10.3496 39.5179 11.8148C40.1055 10.8515 41.0136 9.99354 41.8238 9.99354Z" fill="#AD208E"/>
<path d="M44.6991 13.2634C45.0909 12.8748 45.2868 12.7696 45.2868 12.9315C45.2868 13.0124 45.2422 13.1582 45.1443 13.3686C44.895 13.8948 44.1739 14.3966 43.7109 14.3966C43.239 14.3966 42.9541 14.1538 42.9185 13.6519C42.9007 13.4739 42.9185 12.9558 43.0966 12.3487C43.2479 11.8631 43.3281 11.3855 43.3904 11.086C43.426 10.9241 43.4349 10.7703 43.4349 10.6489C43.4349 10.4951 43.3904 10.3655 43.3014 10.2441C43.613 10.1389 43.9157 10.0741 44.1917 10.0741C44.3431 10.0741 44.53 10.0984 44.6368 10.2036C44.7437 10.3089 44.7793 10.4465 44.7437 10.6246C44.717 10.7541 44.6903 10.8836 44.6458 11.0293C44.5122 11.4826 44.352 11.9926 44.2985 12.2192C44.2273 12.5025 44.165 12.9639 44.165 13.1986C44.165 13.3605 44.1739 13.5467 44.2629 13.5467C44.3697 13.5467 44.5211 13.4172 44.6991 13.2634ZM45.1265 8.00195C44.6991 8.00195 44.2807 8.07481 43.9157 8.20432C43.9335 8.24481 43.9602 8.27717 43.9602 8.31764C43.9691 8.64142 43.8177 9.10282 43.8177 9.33755C43.8177 9.46706 43.9157 9.63704 44.2896 9.56418C44.806 9.46706 44.7971 9.47514 45.1888 8.92472C45.4203 8.60095 45.5004 8.46334 45.545 8.30954C45.5539 8.26905 45.5539 8.24479 45.5539 8.2124C45.545 8.09099 45.4025 8.00195 45.1265 8.00195Z" fill="#AD208E"/>
<path d="M48.0829 9.92871C49.0533 9.92871 49.7121 10.471 49.7121 11.3695C49.7121 12.8913 48.4123 14.4293 46.8275 14.4293C45.8482 14.4293 45.1982 13.8626 45.1982 12.9237C45.1982 12.1385 45.5009 11.4343 46.0618 10.8353C46.6138 10.2768 47.3083 9.92871 48.0829 9.92871ZM47.8158 10.5277C47.0234 10.5277 46.507 12.0818 46.507 13.0127C46.507 13.4903 46.6673 13.8383 47.0946 13.8383C47.8781 13.8383 48.3856 12.3004 48.3856 11.3695C48.3856 10.892 48.2431 10.5277 47.8158 10.5277Z" fill="#AD208E"/>
<path d="M51.9285 12.0414C51.4922 12.6808 51.3587 12.9965 50.9403 13.9436C50.8156 14.235 50.6553 14.3807 50.2013 14.3807C50.0232 14.3807 49.7917 14.3564 49.5068 14.3159C49.7027 13.8707 49.8808 13.4012 50.0321 12.9479C50.3793 11.9038 50.5129 11.1429 50.5129 10.7058C50.5129 10.5034 50.4862 10.3172 50.4149 10.1796C50.8067 10.0178 51.1183 9.953 51.3498 9.953C51.5724 9.953 51.8216 10.0582 51.8216 10.3415C51.8216 10.6734 51.6703 11.1834 51.5011 11.8147C52.0531 10.8758 53.0236 9.92871 53.7714 9.92871C54.1721 9.92871 54.4481 10.1796 54.4481 10.5196C54.4481 10.8838 54.3234 11.4586 54.1543 12.0899C54.0296 12.4866 53.8872 12.9075 53.8872 13.1989C53.8872 13.3608 53.8961 13.547 53.9851 13.547C54.0741 13.547 54.2433 13.4255 54.4125 13.2636C54.6974 12.9965 54.8487 12.8589 54.9466 12.8589C54.9823 12.8589 55.0001 12.8751 55.0001 12.9237C55.0001 13.5227 54.0474 14.3969 53.4242 14.3969C52.9523 14.3969 52.6229 14.1621 52.6229 13.6522C52.6229 13.377 52.712 13.0937 52.801 12.7294C53.0325 11.8147 53.1571 11.2319 53.1571 11.1105C53.1571 10.981 53.0948 10.9324 53.0236 10.9324C52.7743 10.9324 52.3469 11.4424 51.9285 12.0414Z" fill="#AD208E"/>
<path d="M26.7429 20.3579C26.8723 20.8066 27.3415 21.0641 27.9078 21.0641C28.5955 21.0641 29.0404 20.7478 29.0404 20.152C29.0404 19.821 28.8543 19.5636 28.5307 19.3209C27.8997 18.8428 27.0664 18.5044 27.0664 17.6585C27.0664 16.4964 28.2071 15.7314 29.4773 15.7314C30.1406 15.7314 30.7231 15.8638 30.7231 16.3052C30.7231 16.5552 30.44 16.8347 30.1892 16.9377C29.9303 16.5626 29.6471 16.3346 29.1051 16.3346C28.5307 16.3346 28.1505 16.5846 28.1505 17.0848C28.1505 17.5335 28.4255 17.7027 29.5177 18.4676C29.9303 18.806 30.1892 19.1664 30.1892 19.6886C30.1892 20.8875 28.8058 21.6819 27.5518 21.6819C26.8642 21.6819 25.9419 21.4245 25.9419 20.8949C25.9419 20.6007 26.2574 20.2255 26.7266 20.1005C26.7105 20.1888 26.7186 20.2697 26.7429 20.3579Z" fill="#414042"/>
<path d="M33.9672 17.5561C34.3313 17.5561 34.5416 17.74 34.5416 18.1519C34.5335 18.6741 34.129 19.667 34.129 20.4614C34.129 20.6085 34.1452 20.7777 34.2261 20.7777C34.3393 20.7777 34.4688 20.6674 34.6225 20.5203C34.8814 20.2775 35.0189 20.1525 35.1079 20.1525C35.1403 20.1525 35.1565 20.1672 35.1565 20.2113C35.1565 20.7409 34.2989 21.55 33.7164 21.55C33.2715 21.55 32.9964 21.3 32.9964 20.7777C32.9964 20.5718 33.0207 20.1525 33.1582 19.6965C33.3038 19.2331 33.3605 18.88 33.3685 18.6667C33.3685 18.5785 33.3362 18.4387 33.2391 18.4387C32.8831 18.4387 32.1227 19.5273 31.3784 21.1455C31.257 21.4103 31.1276 21.5427 30.7069 21.5427C30.5532 21.5427 30.3429 21.5206 30.084 21.4838C30.6988 20.0201 31.0791 18.3872 31.3137 16.7176C31.3137 16.6881 31.3217 16.6661 31.3217 16.644C31.3217 16.5263 31.2894 16.4307 31.2247 16.3057C31.5564 16.1365 31.8395 16.0703 32.0984 16.0703C32.333 16.0703 32.5029 16.188 32.5029 16.416C32.5029 16.4381 32.5029 16.4601 32.4948 16.4822C32.4786 16.6661 32.244 17.8797 31.8719 19.211C32.4059 18.3358 33.231 17.5561 33.9672 17.5561Z" fill="#414042"/>
<path d="M37.462 17.4971C38.3438 17.4971 38.9425 17.9899 38.9425 18.8063C38.9425 20.1891 37.7613 21.5866 36.3213 21.5866C35.4314 21.5866 34.8408 21.0717 34.8408 20.2185C34.8408 19.5051 35.1159 18.8651 35.6256 18.3208C36.1272 17.8133 36.7582 17.4971 37.462 17.4971ZM37.2193 18.0414C36.4993 18.0414 36.0301 19.4536 36.0301 20.2994C36.0301 20.7334 36.1757 21.0497 36.564 21.0497C37.276 21.0497 37.7371 19.6522 37.7371 18.8063C37.7371 18.3723 37.6076 18.0414 37.2193 18.0414Z" fill="#414042"/>
<path d="M43.3757 18.5344C43.3757 19.9613 42.1541 21.5353 40.7626 21.5353C40.5037 21.5353 40.2368 21.4912 40.0021 21.3956C39.9131 21.7119 39.8241 22.1017 39.8241 22.418C39.8241 22.5356 39.8646 22.6607 39.905 22.7857C39.6138 22.9181 39.3387 22.9696 39.1446 22.9696C38.8129 22.9696 38.6592 22.8225 38.6592 22.5577C38.6592 22.4547 38.6754 22.3297 38.7077 22.1973C38.7644 21.9913 39.4277 19.417 39.5248 19.0345C39.63 18.6226 39.6947 18.3063 39.6947 17.9901C39.6947 17.8724 39.6704 17.7547 39.6138 17.6444C39.9374 17.512 40.2125 17.4531 40.4471 17.4531C40.7464 17.4531 40.9082 17.5635 40.9082 17.7915C40.9082 17.9239 40.803 18.3578 40.6332 18.9463C41.1024 18.2622 41.7415 17.5267 42.5181 17.5267C42.5829 17.5267 42.6476 17.534 42.7204 17.5414C43.1896 17.6002 43.3757 18.0931 43.3757 18.5344ZM42.1864 18.755C42.1864 18.4682 42.1136 18.3064 41.9356 18.3064C41.5149 18.3064 40.5037 19.7995 40.1882 20.6086C40.2367 20.8145 40.5684 20.9616 40.8435 20.9616C41.5311 20.9616 42.1298 19.8289 42.1864 18.8433C42.1864 18.8139 42.1864 18.7844 42.1864 18.755Z" fill="#414042"/>
<path fill-rule="evenodd" clip-rule="evenodd" d="M20.7769 12.0655C20.7769 12.0655 21.7989 12.7071 23.6982 12.8032L24.2151 7.72183C21.4695 7.51858 20.4033 5.71921 17.5886 5.76858C17.4703 8.59669 12.1954 8.57921 11.8478 5.85244C8.5194 5.26384 7.20116 7.93248 4.42627 7.9901L5.8131 12.9502C5.8131 12.9502 7.30883 12.4219 8.68639 12.3766C8.59054 14.5306 8.714 16.3911 8.96815 18.0017C9.89644 17.8773 10.8377 17.6438 11.762 17.272C11.7647 17.2727 11.7707 17.2716 11.7749 17.2672C12.4263 17.0196 12.9203 16.7447 13.1653 16.5444C13.4336 16.3221 13.4467 16.1321 13.2419 15.8541C12.9459 15.4531 12.625 15.121 12.7126 14.949C12.8327 14.7136 14.2986 15.1026 14.5576 14.9629C14.8855 14.7915 15.2828 13.6442 15.638 13.6877C15.9984 13.7325 16.0015 14.8846 16.1069 15.2149C16.2124 15.5452 17.9319 15.6496 17.9394 15.9835C17.9463 16.32 16.6655 16.7277 16.4641 17.0651C16.3078 17.3246 16.7001 18.8105 16.445 18.8662C16.194 18.9174 15.7458 18.5898 15.2148 18.2134C15.0351 18.0834 14.7752 18.0158 14.5691 18.0996C13.9797 18.339 13.2246 18.6709 12.2251 19.0501C12.1902 19.0629 12.156 19.0731 12.1202 19.0885C11.3946 19.3334 10.4324 19.6045 9.33297 19.7926C9.74667 21.4721 10.2972 22.8225 10.8598 23.8617C18.1378 24.6429 22.6278 21.9089 24.2766 20.6394C21.5917 18.703 20.4807 15.363 20.7769 12.0655Z" fill="url(#paint0_linear_274_7173)"/>
<path d="M2.04294 19.1059C5.85107 20.7712 10.0954 19.7691 12.2253 19.0504L14.0323 19.8914C4.9954 23.3832 0.15555 18.0893 0 17.915C0.661645 18.4134 1.34529 18.8044 2.04294 19.1059Z" fill="url(#paint1_linear_274_7173)"/>
<path d="M10.0047 2.72043C18.1757 -1.01255 22.5343 1.99324 23.5363 3.07796C23.5363 3.07796 21.3515 -1.01129 13.4907 0.237005C6.9212 1.28183 0.492093 6.49227 0.281157 11.7442C0.195578 13.8498 1.0687 15.4881 2.49245 16.5725C4.74638 18.2935 8.37865 18.6331 11.7622 17.2723C11.5678 17.3253 11.1575 16.9744 10.5914 17.0219C9.67787 17.0992 8.39603 17.3196 6.94184 17.0941C5.87324 16.9349 4.71444 16.532 3.53938 15.665C0.41679 13.3619 1.83545 6.45659 10.0047 2.72043Z" fill="url(#paint2_linear_274_7173)"/>
<path d="M17.9901 1.58487C17.9901 1.58487 11.4132 1.34046 6.91846 5.38734C6.91846 5.38734 11.3073 2.72559 17.9901 1.58487Z" fill="url(#paint3_linear_274_7173)"/>
<defs>
<linearGradient id="paint0_linear_274_7173" x1="11.1125" y1="6.76885" x2="23.4501" y2="24.2525" gradientUnits="userSpaceOnUse">
<stop stop-color="#EC008C"/>
<stop offset="1" stop-color="#582E91"/>
</linearGradient>
<linearGradient id="paint1_linear_274_7173" x1="2.63552" y1="12.7512" x2="14.9731" y2="30.2349" gradientUnits="userSpaceOnUse">
<stop stop-color="#EC008C"/>
<stop offset="1" stop-color="#582E91"/>
</linearGradient>
<linearGradient id="paint2_linear_274_7173" x1="10.8271" y1="6.97067" x2="23.1647" y2="24.4543" gradientUnits="userSpaceOnUse">
<stop stop-color="#EC008C"/>
<stop offset="1" stop-color="#582E91"/>
</linearGradient>
<linearGradient id="paint3_linear_274_7173" x1="13.5613" y1="5.04075" x2="25.8988" y2="22.5243" gradientUnits="userSpaceOnUse">
<stop stop-color="#EC008C"/>
<stop offset="1" stop-color="#582E91"/>
</linearGradient>
</defs>
</svg>
