<svg width="29" height="29" viewBox="0 0 29 29" fill="none" xmlns="http://www.w3.org/2000/svg">
<path d="M0.75 22.0833C0.75 20.0294 0.75 19.0024 1.21231 18.248C1.47099 17.8259 1.82591 17.471 2.24804 17.2123C3.00246 16.75 4.02942 16.75 6.08333 16.75C8.13725 16.75 9.16421 16.75 9.91862 17.2123C10.3408 17.471 10.6957 17.8259 10.9544 18.248C11.4167 19.0024 11.4167 20.0294 11.4167 22.0833C11.4167 24.1372 11.4167 25.1642 10.9544 25.9186C10.6957 26.3407 10.3408 26.6956 9.91862 26.9543C9.16421 27.4166 8.13725 27.4166 6.08333 27.4166C4.02942 27.4166 3.00246 27.4166 2.24804 26.9543C1.82591 26.6956 1.47099 26.3407 1.21231 25.9186C0.75 25.1642 0.75 24.1372 0.75 22.0833Z" stroke="#00344C" stroke-width="1.5"/>
<path d="M16.75 22.0833C16.75 20.0294 16.75 19.0024 17.2123 18.248C17.471 17.8259 17.8259 17.471 18.248 17.2123C19.0025 16.75 20.0294 16.75 22.0833 16.75C24.1373 16.75 25.1642 16.75 25.9186 17.2123C26.3408 17.471 26.6957 17.8259 26.9544 18.248C27.4167 19.0024 27.4167 20.0294 27.4167 22.0833C27.4167 24.1372 27.4167 25.1642 26.9544 25.9186C26.6957 26.3407 26.3408 26.6956 25.9186 26.9543C25.1642 27.4166 24.1373 27.4166 22.0833 27.4166C20.0294 27.4166 19.0025 27.4166 18.248 26.9543C17.8259 26.6956 17.471 26.3407 17.2123 25.9186C16.75 25.1642 16.75 24.1372 16.75 22.0833Z" stroke="#00344C" stroke-width="1.5"/>
<path d="M0.75 6.08339C0.75 4.02948 0.75 3.00252 1.21231 2.2481C1.47099 1.82597 1.82591 1.47105 2.24804 1.21237C3.00246 0.750061 4.02942 0.750061 6.08333 0.750061C8.13725 0.750061 9.16421 0.750061 9.91862 1.21237C10.3408 1.47105 10.6957 1.82597 10.9544 2.2481C11.4167 3.00252 11.4167 4.02948 11.4167 6.08339C11.4167 8.13731 11.4167 9.16427 10.9544 9.91868C10.6957 10.3408 10.3408 10.6957 9.91862 10.9544C9.16421 11.4167 8.13725 11.4167 6.08333 11.4167C4.02942 11.4167 3.00246 11.4167 2.24804 10.9544C1.82591 10.6957 1.47099 10.3408 1.21231 9.91868C0.75 9.16427 0.75 8.13731 0.75 6.08339Z" stroke="#00344C" stroke-width="1.5"/>
<path d="M16.75 6.08333C16.75 4.02942 16.75 3.00246 17.2123 2.24804C17.471 1.82591 17.8259 1.47099 18.248 1.21231C19.0025 0.75 20.0294 0.75 22.0833 0.75C24.1373 0.75 25.1642 0.75 25.9186 1.21231C26.3408 1.47099 26.6957 1.82591 26.9544 2.24804C27.4167 3.00246 27.4167 4.02942 27.4167 6.08333C27.4167 8.13725 27.4167 9.16421 26.9544 9.91862C26.6957 10.3408 26.3408 10.6957 25.9186 10.9544C25.1642 11.4167 24.1373 11.4167 22.0833 11.4167C20.0294 11.4167 19.0025 11.4167 18.248 10.9544C17.8259 10.6957 17.471 10.3408 17.2123 9.91862C16.75 9.16421 16.75 8.13725 16.75 6.08333Z" stroke="#00344C" stroke-width="1.5"/>
</svg>
