<svg width="29" height="29" viewBox="0 0 29 29" fill="none" xmlns="http://www.w3.org/2000/svg">
<path d="M0.75 19.4611C0.75 22.0792 1.76763 24.4611 3.43104 26.2368C4.35662 27.2249 5.18398 27.4166 6.52187 27.4166H14.9781C16.316 27.4166 17.1434 27.2249 18.069 26.2368C19.7324 24.4611 20.75 22.0792 20.75 19.4611C20.75 15.452 18.364 11.9971 14.927 10.4239C14.3391 10.1547 13.8188 10.0833 13.1734 10.0833H8.3266C7.68116 10.0833 7.16088 10.1547 6.57299 10.4239C3.136 11.9971 0.75 15.452 0.75 19.4611Z" stroke="#00344C" stroke-width="1.5" stroke-linecap="round" stroke-linejoin="round"/>
<path d="M7.4165 10.0833V8.74998C7.4165 6.54376 7.87695 6.08331 10.0832 6.08331H11.4165C13.6227 6.08331 14.0832 6.54376 14.0832 8.74998V10.0833" stroke="#00344C" stroke-width="1.5" stroke-linejoin="round"/>
<path d="M12.75 6.08331V4.08331C12.75 2.68411 12.2525 2.08331 10.75 2.08331C9.24751 2.08331 8.75 2.68411 8.75 4.08331V6.08331" stroke="#00344C" stroke-width="1.5" stroke-linejoin="round"/>
<circle cx="23.4165" cy="4.75" r="4" stroke="#00344C" stroke-width="1.5" stroke-linecap="round" stroke-linejoin="round"/>
<path d="M6.08325 3.41663H8.74992M12.7499 3.41663L19.4166 3.41663" stroke="#00344C" stroke-width="1.5" stroke-linecap="round" stroke-linejoin="round"/>
</svg>
