<svg width="32" height="32" viewBox="0 0 32 32" fill="none" xmlns="http://www.w3.org/2000/svg">
<path d="M7.33203 9.33594C7.77018 10.6504 8.29061 11.9809 8.47763 13.3613C8.61198 14.353 8.55922 15.3583 8.4537 17.3689L7.9987 26.0382C7.9987 26.979 8.1585 27.4815 9.00524 27.9354C12.4888 29.8028 19.5086 29.8028 22.9922 27.9354C23.8389 27.4815 23.9987 26.979 23.9987 26.0382L23.5437 17.3689C23.4382 15.3583 23.3854 14.353 23.5198 13.3613C23.7068 11.9809 24.2272 10.6504 24.6654 9.33594" stroke="#00344C" stroke-width="1.5" stroke-linecap="round" stroke-linejoin="round"/>
<path d="M7.96275 24.6817C7.34064 24.9916 6.72021 25.3971 5.99673 25.3199C4.77467 25.1897 4.49025 24.5991 4.24158 23.1214L2.80074 14.5589C2.60807 13.414 2.60851 13.4052 2.9124 12.2844L3.62932 9.64044C4.11464 7.85062 4.3573 6.95571 4.93913 6.27308C5.52096 5.59045 6.36801 5.20686 8.06213 4.43968L11.4548 2.90327C11.9811 2.66498 11.9853 2.66406 12.5633 2.66406H19.4392C20.0173 2.66406 20.0215 2.66497 20.5477 2.90327L23.9405 4.43968C25.6346 5.20686 26.4816 5.59045 27.0635 6.27308C27.6453 6.95571 27.8879 7.85062 28.3733 9.64044L29.0902 12.2844C29.3941 13.4051 29.3945 13.414 29.2018 14.5589L27.761 23.1214C27.5119 24.6018 27.2261 25.1906 26.0015 25.3202C25.2454 25.4002 24.6932 25.0094 24.0355 24.6817" stroke="#00344C" stroke-width="1.5" stroke-linecap="round" stroke-linejoin="round"/>
<path d="M12 3.33594C12 3.33594 13.21 5.88897 14.2141 6.42071C14.7289 6.69331 15.3734 6.6687 16 6.6687C16.6266 6.6687 17.2711 6.69331 17.7859 6.42071C18.79 5.88897 20 3.33594 20 3.33594" stroke="#00344C" stroke-width="1.5" stroke-linecap="round" stroke-linejoin="round"/>
</svg>
