<svg width="20" height="20" viewBox="0 0 20 20" fill="none" xmlns="http://www.w3.org/2000/svg">
<path d="M17.5436 9.58333L17.7755 8.19984C17.9271 7.29524 18.0029 6.84293 17.7601 6.54647C17.5173 6.25 17.0711 6.25 16.1786 6.25H3.82128C2.92876 6.25 2.4825 6.25 2.2397 6.54647C1.99689 6.84293 2.07271 7.29524 2.22436 8.19984L3.22733 14.1829C3.55976 16.1659 3.72598 17.1574 4.40463 17.7454C5.08327 18.3333 6.06155 18.3333 8.0181 18.3333H9.99992" stroke="white" stroke-width="1.5" stroke-linecap="round"/>
<path d="M11.6665 15H18.3332M14.9998 18.3333L14.9998 11.6666" stroke="white" stroke-width="1.5" stroke-linecap="round"/>
<path d="M14.5832 6.24996C14.5832 3.71865 12.5311 1.66663 9.99984 1.66663C7.46853 1.66663 5.4165 3.71865 5.4165 6.24996" stroke="white" stroke-width="1.5"/>
</svg>
