<svg width="32" height="32" viewBox="0 0 32 32" fill="none" xmlns="http://www.w3.org/2000/svg">
<path d="M6.66675 12.0001C6.66675 7.60031 6.66675 5.40042 8.03358 4.03358C9.40042 2.66675 11.6003 2.66675 16.0001 2.66675C20.3999 2.66675 22.5997 2.66675 23.9666 4.03358C25.3334 5.40042 25.3334 7.60031 25.3334 12.0001V20.0001C25.3334 24.3999 25.3334 26.5997 23.9666 27.9666C22.5997 29.3334 20.3999 29.3334 16.0001 29.3334C11.6003 29.3334 9.40042 29.3334 8.03358 27.9666C6.66675 26.5997 6.66675 24.3999 6.66675 20.0001L6.66675 12.0001Z" stroke="#00344C" stroke-width="1.5" stroke-linecap="round"/>
<path d="M14.6667 25.3333H17.3334" stroke="#00344C" stroke-width="1.5" stroke-linecap="round" stroke-linejoin="round"/>
<path d="M12 2.66669L12.1187 3.37871C12.3758 4.92174 12.5044 5.69326 13.0336 6.16274C13.5856 6.65248 14.3682 6.66669 16 6.66669C17.6318 6.66669 18.4144 6.65248 18.9664 6.16274C19.4956 5.69326 19.6242 4.92174 19.8813 3.37871L20 2.66669" stroke="#00344C" stroke-width="1.5" stroke-linejoin="round"/>
</svg>
