<svg width="40" height="40" viewBox="0 0 40 40" fill="none" xmlns="http://www.w3.org/2000/svg">
<path d="M5 18.3333L5 25.8333C5 30.5474 5 32.9044 6.46447 34.3688C7.92893 35.8333 10.286 35.8333 15 35.8333H25C29.714 35.8333 32.0711 35.8333 33.5355 34.3688C35 32.9044 35 30.5474 35 25.8333V18.3333" stroke="white" stroke-width="1.5"/>
<path d="M13.2846 15L14.0091 14.8061C13.9117 14.4425 13.5599 14.2073 13.1868 14.2564C12.8136 14.3055 12.5346 14.6236 12.5346 15H13.2846ZM3.5225 16.7341L4.22532 16.4723H4.22532L3.5225 16.7341ZM36.4776 16.7341L35.7748 16.4723V16.4723L36.4776 16.7341ZM26.7155 15H27.4655C27.4655 14.6236 27.1865 14.3055 26.8133 14.2564C26.4401 14.2073 26.0884 14.4425 25.991 14.8061L26.7155 15ZM4.09616 13.4629L4.74617 13.837H4.74617L4.09616 13.4629ZM5.70227 10.6726L5.05226 10.2984H5.05226L5.70227 10.6726ZM35.9039 13.4629L35.2539 13.837V13.837L35.9039 13.4629ZM34.2978 10.6726L34.9478 10.2984V10.2984L34.2978 10.6726ZM36.6455 15.3816L35.8981 15.4438V15.4438L36.6455 15.3816ZM3.35461 15.3816L2.6072 15.3193V15.3193L3.35461 15.3816ZM13.2846 15H12.5346C12.5346 17.3421 10.6206 19.25 8.24796 19.25V20V20.75C11.4386 20.75 14.0346 18.1808 14.0346 15H13.2846ZM8.24796 20V19.25C6.40102 19.25 4.82879 18.0924 4.22532 16.4723L3.5225 16.7341L2.81967 16.9959C3.63666 19.1892 5.75988 20.75 8.24796 20.75V20ZM36.4776 16.7341L35.7748 16.4723C35.1713 18.0924 33.5991 19.25 31.7521 19.25V20V20.75C34.2402 20.75 36.3634 19.1892 37.1804 16.9959L36.4776 16.7341ZM31.7521 20V19.25C29.3795 19.25 27.4655 17.3421 27.4655 15H26.7155H25.9655C25.9655 18.1808 28.5614 20.75 31.7521 20.75V20ZM20 20V19.25C17.099 19.25 14.6885 17.3443 14.0091 14.8061L13.2846 15L12.5601 15.194C13.4201 18.4065 16.4392 20.75 20 20.75V20ZM26.7155 15L25.991 14.8061C25.3116 17.3443 22.9011 19.25 20 19.25V20V20.75C23.5609 20.75 26.58 18.4065 27.44 15.194L26.7155 15ZM4.09616 13.4629L4.74617 13.837L6.35227 11.0468L5.70227 10.6726L5.05226 10.2984L3.44615 13.0887L4.09616 13.4629ZM35.9039 13.4629L36.5539 13.0887L34.9478 10.2984L34.2978 10.6726L33.6478 11.0468L35.2539 13.837L35.9039 13.4629ZM9.85856 4.16669V4.91669H30.1415V4.16669V3.41669H9.85856V4.16669ZM33.431 7.43225H34.181C34.181 5.20937 32.3673 3.41669 30.1415 3.41669V4.16669V4.91669C31.5492 4.91669 32.681 6.04809 32.681 7.43225H33.431ZM34.2978 10.6726L34.9478 10.2984C34.4452 9.4252 34.181 8.43727 34.181 7.43225H33.431H32.681C32.681 8.70041 33.0144 9.94632 33.6478 11.0468L34.2978 10.6726ZM6.56909 7.43225H7.31909C7.31909 6.04809 8.45088 4.91669 9.85856 4.91669V4.16669V3.41669C7.63279 3.41669 5.81909 5.20937 5.81909 7.43225H6.56909ZM36.4776 16.7341L37.1804 16.9959C37.2538 16.7987 37.3388 16.577 37.3828 16.2966C37.4266 16.0174 37.4258 15.7146 37.3929 15.3193L36.6455 15.3816L35.8981 15.4438C35.9265 15.7856 35.9182 15.9539 35.9009 16.0642C35.8838 16.1732 35.8542 16.2591 35.7748 16.4723L36.4776 16.7341ZM35.9039 13.4629L35.2539 13.837C35.7103 14.6299 35.8521 14.8922 35.8981 15.4438L36.6455 15.3816L37.3929 15.3193C37.3161 14.3969 37.0044 13.8713 36.5539 13.0887L35.9039 13.4629ZM5.70227 10.6726L6.35227 11.0468C6.9857 9.94632 7.31909 8.70041 7.31909 7.43225H6.56909H5.81909C5.81909 8.43727 5.55491 9.4252 5.05226 10.2984L5.70227 10.6726ZM3.5225 16.7341L4.22532 16.4723C4.14592 16.2591 4.11627 16.1732 4.09917 16.0642C4.08187 15.9539 4.07356 15.7856 4.10202 15.4438L3.35461 15.3816L2.6072 15.3193C2.57428 15.7146 2.5735 16.0174 2.61728 16.2966C2.66126 16.577 2.74623 16.7987 2.81967 16.9959L3.5225 16.7341ZM4.09616 13.4629L3.44615 13.0887C2.99567 13.8713 2.68401 14.3969 2.6072 15.3193L3.35461 15.3816L4.10202 15.4438C4.14796 14.8922 4.28975 14.6299 4.74617 13.837L4.09616 13.4629Z" fill="white"/>
<path d="M11.6666 30H18.3333" stroke="white" stroke-width="1.5" stroke-linecap="round"/>
</svg>
