<svg width="80" height="70" viewBox="0 0 80 70" fill="none" xmlns="http://www.w3.org/2000/svg">
<path d="M16 24C16 10.7452 26.7452 0 40 0C53.2548 0 64 10.7452 64 24C64 37.2548 53.2548 48 40 48C26.7452 48 16 37.2548 16 24Z" fill="url(#paint0_linear_307_2531)"/>
<g clip-path="url(#clip0_307_2531)">
<path d="M34.0781 18C34.277 17.9998 34.4676 17.9207 34.6082 17.7801C34.7488 17.6395 34.8279 17.4488 34.8281 17.25V16.5C34.8279 16.3012 34.7488 16.1105 34.6082 15.9699C34.4676 15.8293 34.277 15.7502 34.0781 15.75H33.3281C33.1293 15.7502 32.9386 15.8293 32.798 15.9699C32.6574 16.1105 32.5784 16.3012 32.5781 16.5V17.25C32.5784 17.4488 32.6574 17.6395 32.798 17.7801C32.9386 17.9207 33.1293 17.9998 33.3281 18H34.0781ZM33.3281 16.5H34.0781L34.0786 17.25L34.0781 17.25H33.3281V16.5Z" fill="white"/>
<path d="M36.3281 18H37.0781C37.277 17.9998 37.4676 17.9207 37.6082 17.7801C37.7488 17.6395 37.8279 17.4488 37.8281 17.25V16.5C37.8279 16.3012 37.7488 16.1105 37.6082 15.9699C37.4676 15.8293 37.277 15.7502 37.0781 15.75H36.3281C36.1293 15.7502 35.9386 15.8293 35.798 15.9699C35.6574 16.1105 35.5784 16.3012 35.5781 16.5V17.25C35.5784 17.4488 35.6574 17.6395 35.798 17.7801C35.9386 17.9207 36.1293 17.9998 36.3281 18ZM36.3281 16.5H37.0781L37.0786 17.25L37.0781 17.25H36.3281V16.5Z" fill="white"/>
<path d="M39.3281 18H40.0781C40.277 17.9998 40.4676 17.9207 40.6082 17.7801C40.7488 17.6395 40.8279 17.4488 40.8281 17.25V16.5C40.8279 16.3012 40.7488 16.1105 40.6082 15.9699C40.4676 15.8293 40.277 15.7502 40.0781 15.75H39.3281C39.1293 15.7502 38.9386 15.8293 38.798 15.9699C38.6574 16.1105 38.5784 16.3012 38.5781 16.5V17.25C38.5784 17.4488 38.6574 17.6395 38.798 17.7801C38.9386 17.9207 39.1293 17.9998 39.3281 18ZM39.3281 16.5H40.0781L40.0786 17.25L40.0781 17.25H39.3281V16.5Z" fill="white"/>
<path d="M47.1576 25.5C47.0038 25.4996 46.8515 25.5297 46.7095 25.5885C46.5674 25.6474 46.4384 25.7338 46.33 25.8428L46.0781 26.0947V22.125C46.0778 21.8267 45.9592 21.5408 45.7483 21.3299C45.5373 21.119 45.2514 21.0003 44.9531 21H38.2031C37.9049 21.0003 37.6189 21.119 37.408 21.3299C37.1971 21.5408 37.0785 21.8267 37.0781 22.125V31.125C37.0785 31.4233 37.1971 31.7092 37.408 31.9201C37.6189 32.131 37.9049 32.2497 38.2031 32.25H44.9531C45.2514 32.2497 45.5373 32.131 45.7483 31.9201C45.9592 31.7092 46.0778 31.4233 46.0781 31.125V29.4053L47.9853 27.4982C48.149 27.3345 48.2605 27.1259 48.3056 26.8989C48.3508 26.6718 48.3276 26.4364 48.239 26.2226C48.1504 26.0087 48.0004 25.8259 47.8079 25.6973C47.6154 25.5686 47.3891 25.5 47.1576 25.5ZM37.8281 22.125C37.8282 22.0256 37.8678 21.9303 37.9381 21.86C38.0084 21.7897 38.1037 21.7501 38.2031 21.75H44.9531C45.0525 21.7501 45.1479 21.7897 45.2182 21.86C45.2885 21.9303 45.328 22.0256 45.3281 22.125V24H37.8281V22.125ZM45.3281 31.125C45.328 31.2244 45.2885 31.3197 45.2182 31.39C45.1479 31.4603 45.0525 31.4999 44.9531 31.5H38.2031C38.1037 31.4999 38.0084 31.4603 37.9381 31.39C37.8678 31.3197 37.8282 31.2244 37.8281 31.125V24.75H45.3281V26.8447L43.0781 29.0947V30.75H44.7334L45.3281 30.1553V31.125ZM44.4228 30H43.8281V29.4053L46.0781 27.1553L46.6728 27.75L44.4228 30ZM47.455 26.9678L47.2031 27.2197L46.6084 26.625L46.8603 26.3732C46.8993 26.3341 46.9457 26.3031 46.9967 26.282C47.0477 26.2609 47.1024 26.25 47.1576 26.25C47.2128 26.25 47.2675 26.2609 47.3185 26.282C47.3696 26.3031 47.4159 26.3341 47.455 26.3732C47.494 26.4122 47.525 26.4586 47.5461 26.5096C47.5673 26.5606 47.5781 26.6153 47.5781 26.6705C47.5781 26.7257 47.5672 26.7804 47.5461 26.8314C47.525 26.8824 47.494 26.9288 47.455 26.9678Z" fill="white"/>
<path d="M38.5781 30H42.3281V30.75H38.5781V30Z" fill="white"/>
<path d="M38.5781 25.5H44.5781V26.25H38.5781V25.5Z" fill="white"/>
<path d="M38.5781 27H43.4531V27.75H38.5781V27Z" fill="white"/>
<path d="M38.5781 28.5H42.3281V29.25H38.5781V28.5Z" fill="white"/>
<path d="M42.3281 18.75V13.875C42.3278 13.5767 42.2092 13.2908 41.9983 13.0799C41.7874 12.869 41.5014 12.7503 41.2031 12.75H32.2031C31.9049 12.7503 31.6189 12.869 31.408 13.0799C31.1971 13.2908 31.0785 13.5767 31.0781 13.875V22.2803L29.1577 24.2008C29.0529 24.305 28.9698 24.429 28.9132 24.5656C28.8567 24.7021 28.8277 24.8485 28.8281 24.9963V28.1893C28.8285 28.3371 28.7996 28.4835 28.7431 28.6201C28.6865 28.7566 28.6034 28.8806 28.4986 28.9848L27.813 29.6705L28.3433 30.2008L29.029 29.5152C29.2036 29.3415 29.3421 29.1348 29.4364 28.9073C29.5306 28.6797 29.5788 28.4357 29.5781 28.1893V24.9963C29.578 24.9471 29.5877 24.8982 29.6065 24.8527C29.6254 24.8072 29.6531 24.7659 29.688 24.7311L31.7183 22.7008C31.782 22.6371 31.8576 22.5866 31.9408 22.5521C32.024 22.5176 32.1131 22.4998 32.2032 22.4998C32.2933 22.4998 32.3825 22.5175 32.4657 22.5519C32.5489 22.5864 32.6245 22.6369 32.6882 22.7006C32.7519 22.7643 32.8024 22.8399 32.8369 22.9231C32.8713 23.0063 32.889 23.0955 32.889 23.1856C32.889 23.2757 32.8712 23.3648 32.8367 23.4481C32.8023 23.5313 32.7517 23.6068 32.688 23.6705L31.4077 24.9508C31.3029 25.055 31.2198 25.179 31.1632 25.3156C31.1067 25.4521 31.0777 25.5985 31.0781 25.7463V30.375C31.0785 30.6733 31.1971 30.9592 31.408 31.1701C31.6189 31.381 31.9049 31.4997 32.2031 31.5H34.2978L33.8773 31.9205C33.7731 32.0253 33.6491 32.1084 33.5126 32.1649C33.376 32.2215 33.2296 32.2504 33.0818 32.25H32.4495C32.2031 32.2493 31.9591 32.2975 31.7315 32.3918C31.504 32.486 31.2974 32.6245 31.1236 32.7992L28.938 34.9848L29.4683 35.5152L31.654 33.3295C31.7582 33.2247 31.8822 33.1416 32.0187 33.0851C32.1553 33.0285 32.3017 32.9996 32.4495 33H33.0818C33.3282 33.0007 33.5722 32.9525 33.7997 32.8582C34.0273 32.764 34.2339 32.6255 34.4076 32.4508L34.9508 31.9077C35.7172 32.9442 36.716 33.7865 37.867 34.367C39.018 34.9475 40.2891 35.2499 41.5781 35.25H42.3281C46.8772 35.25 50.5781 31.5491 50.5781 27C50.5781 22.4509 46.8772 18.75 42.3281 18.75ZM39.2228 13.5L39.1064 13.9659C39.0862 14.0471 39.0394 14.1192 38.9734 14.1707C38.9075 14.2222 38.8262 14.2501 38.7426 14.25H34.6637C34.5801 14.2501 34.4988 14.2222 34.4329 14.1707C34.3669 14.1192 34.3201 14.0471 34.2999 13.9659L34.1834 13.5H39.2228ZM32.2031 21.75C32.0765 21.75 31.9504 21.7667 31.8281 21.7996V13.875C31.8283 13.7756 31.8678 13.6803 31.9381 13.61C32.0084 13.5397 32.1037 13.5001 32.2031 13.5H33.4104L33.5723 14.1479C33.6329 14.3914 33.7733 14.6076 33.9711 14.7621C34.1689 14.9165 34.4128 15.0003 34.6637 15H38.7426C38.9935 15.0003 39.2374 14.9165 39.4352 14.7621C39.633 14.6076 39.7734 14.3914 39.834 14.1479L39.9959 13.5H41.2031C41.3026 13.5001 41.3979 13.5397 41.4682 13.61C41.5385 13.6803 41.578 13.7756 41.5781 13.875V18.75H33.3281V22.2941C33.2939 22.2508 33.2572 22.2096 33.2183 22.1705C33.0853 22.0368 32.9271 21.9307 32.7528 21.8586C32.5786 21.7864 32.3918 21.7495 32.2031 21.75ZM32.2031 30.75C32.1037 30.7499 32.0084 30.7103 31.9381 30.64C31.8678 30.5697 31.8283 30.4744 31.8281 30.375V25.7463C31.828 25.6971 31.8377 25.6482 31.8565 25.6027C31.8754 25.5572 31.9031 25.5159 31.938 25.4811L33.2183 24.2008C33.2572 24.1617 33.2939 24.1205 33.3281 24.0773V27C33.3266 28.304 33.636 29.5896 34.2307 30.75H32.2031ZM42.3281 34.5H41.5781C37.4426 34.5 34.0781 31.1355 34.0781 27V19.5H42.3281C46.4637 19.5 49.8281 22.8645 49.8281 27C49.8281 31.1355 46.4637 34.5 42.3281 34.5Z" fill="white"/>
<path d="M39.7031 22.5H43.4531V23.25H39.7031V22.5Z" fill="white"/>
<path d="M44.9531 13.125H45.7031V14.25H44.9531V13.125Z" fill="white"/>
<path d="M43.8281 14.25H44.9531V15H43.8281V14.25Z" fill="white"/>
<path d="M44.9531 15H45.7031V16.125H44.9531V15Z" fill="white"/>
<path d="M45.7031 14.25H46.8281V15H45.7031V14.25Z" fill="white"/>
<path d="M48.3281 16.125H49.0781V17.25H48.3281V16.125Z" fill="white"/>
<path d="M47.2031 17.25H48.3281V18H47.2031V17.25Z" fill="white"/>
<path d="M48.3281 18H49.0781V19.125H48.3281V18Z" fill="white"/>
<path d="M49.0781 17.25H50.2031V18H49.0781V17.25Z" fill="white"/>
</g>
<path d="M0 58.5C0 57.1193 1.11929 56 2.5 56H77.5C78.8807 56 80 57.1193 80 58.5C80 59.8807 78.8807 61 77.5 61H2.5C1.11929 61 0 59.8807 0 58.5Z" fill="#D9D9D9"/>
<path d="M12 67.5C12 66.1193 13.1193 65 14.5 65H65.5C66.8807 65 68 66.1193 68 67.5C68 68.8807 66.8807 70 65.5 70H14.5C13.1193 70 12 68.8807 12 67.5Z" fill="#D9D9D9"/>
<defs>
<linearGradient id="paint0_linear_307_2531" x1="40" y1="0" x2="40" y2="48" gradientUnits="userSpaceOnUse">
<stop stop-color="#005880"/>
<stop offset="1" stop-color="#1BB1FF"/>
</linearGradient>
<clipPath id="clip0_307_2531">
<rect width="24" height="24" fill="white" transform="translate(27.3281 12)"/>
</clipPath>
</defs>
</svg>
