<svg width="24" height="24" viewBox="0 0 24 24" fill="none" xmlns="http://www.w3.org/2000/svg">
<path d="M11.9993 16C13.3102 16 14.3466 17.1123 14.2532 18.4199L14.2522 18.4277L14.012 22.748C13.7476 22.7487 13.473 22.75 13.1887 22.75H10.8118C10.5268 22.75 10.2516 22.7487 9.98657 22.748L9.74731 18.4277L9.74634 18.4199C9.65294 17.1124 10.6884 16.0001 11.9993 16ZM12.0002 1.25C12.8663 1.25 13.6409 1.52703 14.4768 1.99609C15.2865 2.45052 16.2145 3.1213 17.3811 3.96484L18.8909 5.05664C19.827 5.73348 20.5749 6.27401 21.1389 6.77441C21.7214 7.29125 22.1574 7.80699 22.4338 8.45508C22.7109 9.10463 22.7776 9.77046 22.7405 10.5381C22.7046 11.2789 22.568 12.1727 22.3967 13.2871L22.0813 15.3389C21.838 16.9225 21.6443 18.1836 21.3596 19.166C21.0652 20.182 20.6497 20.9889 19.9084 21.6055C19.1704 22.2192 18.291 22.4926 17.217 22.623C16.8515 22.6674 16.4524 22.6951 16.0168 22.7139L16.2483 18.5537C16.4192 16.0921 14.468 14 11.9993 14C9.53063 14.0001 7.58029 16.0922 7.75122 18.5537L7.98169 22.7139C7.54686 22.6951 7.14846 22.6674 6.78345 22.623C5.70945 22.4926 4.83014 22.2192 4.09204 21.6055C3.35079 20.9889 2.93526 20.182 2.64087 19.166C2.35621 18.1836 2.16253 16.9225 1.91919 15.3389L1.60376 13.2871C1.43249 12.1727 1.29588 11.2788 1.26001 10.5381C1.22285 9.77046 1.28961 9.10463 1.56665 8.45508C1.84309 7.80697 2.27905 7.29126 2.86157 6.77441C3.42572 6.27392 4.17424 5.73365 5.1106 5.05664L6.61938 3.96484C7.78604 3.1213 8.71394 2.45054 9.52368 1.99609C10.3595 1.52704 11.1342 1.25001 12.0002 1.25Z" fill="#161616"/>
</svg>
